<svg version="1.1" id="Layer_1" xmlns="http://www.w3.org/2000/svg" xmlns:xlink="http://www.w3.org/1999/xlink" x="0px" y="0px"
	 width="100%" viewBox="0 0 4032 3024" enable-background="new 0 0 4032 3024" xml:space="preserve">
	<path fill="none" opacity="1.000000" stroke="none" 
		d="
M2942.000000,3026.000000 
	C1961.333374,3026.000000 981.666687,3026.000000 2.000000,3026.000000 
	C2.000000,2018.000000 2.000000,1010.000000 2.000000,2.000000 
	C1346.000000,2.000000 2690.000000,2.000000 4034.000000,2.000000 
	C4034.000000,1010.000000 4034.000000,2018.000000 4034.000000,3026.000000 
	C3670.333252,3026.000000 3306.666748,3026.000000 2942.000000,3026.000000 
M2042.409180,1135.552979 
	C2060.234619,1133.588257 2078.045898,1131.480103 2095.889893,1129.701294 
	C2112.085449,1128.086670 2128.325195,1126.920898 2144.530029,1125.392944 
	C2163.704102,1123.584961 2182.854736,1121.525391 2202.029785,1119.726685 
	C2211.289551,1118.858032 2220.576172,1118.250610 2229.860352,1117.678467 
	C2242.796875,1116.881226 2255.752441,1116.370850 2268.682373,1115.482666 
	C2295.532715,1113.637817 2322.354004,1111.308594 2349.220947,1109.771240 
	C2375.774414,1108.251465 2402.363770,1107.289917 2428.947998,1106.396118 
	C2461.214355,1105.311401 2493.493896,1103.733643 2525.764160,1103.812622 
	C2615.043701,1104.031128 2704.321289,1104.997925 2793.599609,1105.685547 
	C2795.927246,1105.703491 2798.253174,1105.917480 2800.580322,1106.033325 
	C2824.820801,1107.240967 2849.058838,1108.503174 2873.302979,1109.635376 
	C2890.911865,1110.457642 2908.529053,1111.100708 2926.141602,1111.849243 
	C2927.468994,1111.905640 2928.782715,1112.224854 2930.110352,1112.324707 
	C2945.012939,1113.446045 2959.913574,1114.597412 2974.821777,1115.640991 
	C2987.751221,1116.546143 3000.692871,1117.278320 3013.623047,1118.172852 
	C3022.570312,1118.791626 3031.518066,1119.441284 3040.446777,1120.280518 
	C3058.630615,1121.989624 3076.794678,1123.907593 3094.979492,1125.605347 
	C3112.180664,1127.211182 3129.420410,1128.426147 3146.602295,1130.209717 
	C3168.411865,1132.473755 3190.188721,1135.064453 3211.964355,1137.645630 
	C3247.905273,1141.905884 3283.874268,1145.965942 3319.754150,1150.696045 
	C3345.056396,1154.031616 3370.244873,1158.248291 3395.458984,1162.230225 
	C3429.871338,1167.665039 3464.402344,1172.493530 3498.628174,1178.933350 
	C3564.503174,1191.328369 3630.285156,1204.256592 3695.945801,1217.741211 
	C3758.391113,1230.565552 3820.477295,1245.035034 3882.049805,1261.630615 
	C3886.979492,1262.959351 3892.107910,1263.551270 3897.624268,1264.574463 
	C3897.624268,1075.789307 3897.624268,888.320129 3897.624268,700.308350 
	C2645.178467,700.308350 1393.446167,700.308350 141.023941,700.308350 
	C141.023941,832.421082 141.023941,963.906372 141.023941,1095.935669 
	C143.978271,1097.242310 146.957825,1098.651611 150.005203,1099.894531 
	C234.507263,1134.362183 321.092804,1162.588745 409.568207,1184.782349 
	C452.682587,1195.597412 496.229523,1204.774170 539.772156,1213.765259 
	C569.028442,1219.806152 598.558960,1224.614136 628.082092,1229.237549 
	C651.063232,1232.836548 674.199036,1235.497681 697.310181,1238.198975 
	C712.804077,1240.009888 728.374756,1241.165283 743.911560,1242.607788 
	C764.413147,1244.511108 784.892395,1246.722412 805.423584,1248.220581 
	C825.969788,1249.719849 846.557434,1251.100342 867.146057,1251.473145 
	C905.714844,1252.171875 944.299255,1252.456055 982.873718,1252.252441 
	C1017.491272,1252.069702 1052.108154,1251.156128 1086.717407,1250.255249 
	C1103.666870,1249.814209 1120.601562,1248.736694 1137.536011,1247.819458 
	C1148.155273,1247.244385 1158.770874,1246.543701 1169.371704,1245.695923 
	C1181.947998,1244.690308 1194.500122,1243.384277 1207.074829,1242.355591 
	C1225.948730,1240.811768 1244.848877,1239.571899 1263.708374,1237.875977 
	C1282.232422,1236.210083 1300.728271,1234.215942 1319.220459,1232.217896 
	C1336.071167,1230.397461 1352.904663,1228.415649 1369.737671,1226.436768 
	C1388.547363,1224.225464 1407.350830,1221.961426 1426.151611,1219.674805 
	C1443.611328,1217.551392 1461.089233,1215.552002 1478.513306,1213.164307 
	C1500.187988,1210.193970 1521.803101,1206.789917 1543.467651,1203.742432 
	C1564.473999,1200.787231 1585.528442,1198.170288 1606.529053,1195.176636 
	C1627.566284,1192.177856 1648.556763,1188.853027 1669.579468,1185.750244 
	C1698.504761,1181.481201 1727.436157,1177.252197 1756.374390,1173.071411 
	C1777.043457,1170.085083 1797.727295,1167.199707 1818.406128,1164.280884 
	C1834.506958,1162.008423 1850.614258,1159.781494 1866.711548,1157.484253 
	C1883.115967,1155.143066 1899.489380,1152.570679 1915.917236,1150.410522 
	C1934.342407,1147.987671 1952.808838,1145.875122 1971.265503,1143.697021 
	C1994.370117,1140.970337 2017.482910,1138.314087 2042.409180,1135.552979 
z"/>
<path fill="#3E43A7" opacity="1.000000" stroke="none" 
	d="
M2041.500732,1135.590332 
	C2017.482910,1138.314087 1994.370117,1140.970337 1971.265503,1143.697021 
	C1952.808838,1145.875122 1934.342407,1147.987671 1915.917236,1150.410522 
	C1899.489380,1152.570679 1883.115967,1155.143066 1866.711548,1157.484253 
	C1850.614258,1159.781494 1834.506958,1162.008423 1818.406128,1164.280884 
	C1797.727295,1167.199707 1777.043457,1170.085083 1756.374390,1173.071411 
	C1727.436157,1177.252197 1698.504761,1181.481201 1669.579468,1185.750244 
	C1648.556763,1188.853027 1627.566284,1192.177856 1606.529053,1195.176636 
	C1585.528442,1198.170288 1564.473999,1200.787231 1543.467651,1203.742432 
	C1521.803101,1206.789917 1500.187988,1210.193970 1478.513306,1213.164307 
	C1461.089233,1215.552002 1443.611328,1217.551392 1426.151611,1219.674805 
	C1407.350830,1221.961426 1388.547363,1224.225464 1369.737671,1226.436768 
	C1352.904663,1228.415649 1336.071167,1230.397461 1319.220459,1232.217896 
	C1300.728271,1234.215942 1282.232422,1236.210083 1263.708374,1237.875977 
	C1244.848877,1239.571899 1225.948730,1240.811768 1207.074829,1242.355591 
	C1194.500122,1243.384277 1181.947998,1244.690308 1169.371704,1245.695923 
	C1158.770874,1246.543701 1148.155273,1247.244385 1137.536011,1247.819458 
	C1120.601562,1248.736694 1103.666870,1249.814209 1086.717407,1250.255249 
	C1052.108154,1251.156128 1017.491272,1252.069702 982.873718,1252.252441 
	C944.299255,1252.456055 905.714844,1252.171875 867.146057,1251.473145 
	C846.557434,1251.100342 825.969788,1249.719849 805.423584,1248.220581 
	C784.892395,1246.722412 764.413147,1244.511108 743.911560,1242.607788 
	C728.374756,1241.165283 712.804077,1240.009888 697.310181,1238.198975 
	C674.199036,1235.497681 651.063232,1232.836548 628.082092,1229.237549 
	C598.558960,1224.614136 569.028442,1219.806152 539.772156,1213.765259 
	C496.229523,1204.774170 452.682587,1195.597412 409.568207,1184.782349 
	C321.092804,1162.588745 234.507263,1134.362183 150.005203,1099.894531 
	C146.957825,1098.651611 143.978271,1097.242310 141.023941,1095.935669 
	C141.023941,963.906372 141.023941,832.421082 141.023941,700.308350 
	C1393.446167,700.308350 2645.178467,700.308350 3897.624268,700.308350 
	C3897.624268,888.320129 3897.624268,1075.789307 3897.624268,1264.574463 
	C3892.107910,1263.551270 3886.979492,1262.959351 3882.049805,1261.630615 
	C3820.477295,1245.035034 3758.391113,1230.565552 3695.945801,1217.741211 
	C3630.285156,1204.256592 3564.503174,1191.328369 3498.628174,1178.933350 
	C3464.402344,1172.493530 3429.871338,1167.665039 3395.458984,1162.230225 
	C3370.244873,1158.248291 3345.056396,1154.031616 3319.754150,1150.696045 
	C3283.874268,1145.965942 3247.905273,1141.905884 3211.964355,1137.645630 
	C3190.188721,1135.064453 3168.411865,1132.473755 3146.602295,1130.209717 
	C3129.420410,1128.426147 3112.180664,1127.211182 3094.979492,1125.605347 
	C3076.794678,1123.907593 3058.630615,1121.989624 3040.446777,1120.280518 
	C3031.518066,1119.441284 3022.570312,1118.791626 3013.623047,1118.172852 
	C3000.692871,1117.278320 2987.751221,1116.546143 2974.821777,1115.640991 
	C2959.913574,1114.597412 2945.012939,1113.446045 2930.110352,1112.324707 
	C2928.782715,1112.224854 2927.468994,1111.905640 2926.141602,1111.849243 
	C2908.529053,1111.100708 2890.911865,1110.457642 2873.302979,1109.635376 
	C2849.058838,1108.503174 2824.820801,1107.240967 2800.580322,1106.033325 
	C2798.253174,1105.917480 2795.927246,1105.703491 2793.599609,1105.685547 
	C2704.321289,1104.997925 2615.043701,1104.031128 2525.764160,1103.812622 
	C2493.493896,1103.733643 2461.214355,1105.311401 2428.947998,1106.396118 
	C2402.363770,1107.289917 2375.774414,1108.251465 2349.220947,1109.771240 
	C2322.354004,1111.308594 2295.532715,1113.637817 2268.682373,1115.482666 
	C2255.752441,1116.370850 2242.796875,1116.881226 2229.860352,1117.678467 
	C2220.576172,1118.250610 2211.289551,1118.858032 2202.029785,1119.726685 
	C2182.854736,1121.525391 2163.704102,1123.584961 2144.530029,1125.392944 
	C2128.325195,1126.920898 2112.085449,1128.086670 2095.889893,1129.701294 
	C2078.045898,1131.480103 2060.234619,1133.588257 2041.500732,1135.590332 
z"/>
</svg>